<?xml version="1.0" encoding="utf-8"?>
<!-- Generator: Adobe Illustrator 25.4.1, SVG Export Plug-In . SVG Version: 6.00 Build 0)  -->
<svg version="1.1" id="Layer_1" xmlns="http://www.w3.org/2000/svg" xmlns:xlink="http://www.w3.org/1999/xlink" x="0px" y="0px"
	 viewBox="0 0 256 256" style="enable-background:new 0 0 256 256;" xml:space="preserve">
<style type="text/css">
	.st0{fill:#FFFFFF;}
</style>
<g>
	<path class="st0" d="M208,250H48c-23.2,0-42-18.8-42-42V48C6,24.8,24.8,6,48,6h160c23.2,0,42,18.8,42,42v160
		C250,231.2,231.2,250,208,250z M48,26c-12.1,0-22,9.9-22,22v160c0,12.1,9.9,22,22,22h160c12.1,0,22-9.9,22-22V48
		c0-12.1-9.9-22-22-22H48z"/>
</g>
<g>
	<path class="st0" d="M148,118c-2.6,0-5.1-1-7.1-2.9c-3.9-3.9-3.9-10.2,0-14.1l53.3-53.3c3.9-3.9,10.2-3.9,14.1,0
		c3.9,3.9,3.9,10.2,0,14.1l-53.3,53.3C153.1,117,150.6,118,148,118z"/>
</g>
<g>
	<path class="st0" d="M201.3,112.7c-5.5,0-10-4.5-10-10v-38h-38c-5.5,0-10-4.5-10-10s4.5-10,10-10h48c5.5,0,10,4.5,10,10v48
		C211.3,108.3,206.8,112.7,201.3,112.7z"/>
</g>
<g>
	<path class="st0" d="M54.7,211.3c-2.6,0-5.1-1-7.1-2.9c-3.9-3.9-3.9-10.2,0-14.1l53.3-53.3c3.9-3.9,10.2-3.9,14.1,0
		c3.9,3.9,3.9,10.2,0,14.1l-53.3,53.3C59.9,210.3,57.3,211.3,54.7,211.3z"/>
</g>
<g>
	<path class="st0" d="M102.7,211.3h-48c-5.5,0-10-4.5-10-10v-48c0-5.5,4.5-10,10-10s10,4.5,10,10v38h38c5.5,0,10,4.5,10,10
		S108.3,211.3,102.7,211.3z"/>
</g>
<g>
	<path class="st0" d="M108,118c-2.6,0-5.1-1-7.1-2.9L47.7,61.8c-3.9-3.9-3.9-10.2,0-14.1c3.9-3.9,10.2-3.9,14.1,0l53.3,53.3
		c3.9,3.9,3.9,10.2,0,14.1C113.1,117,110.6,118,108,118z"/>
</g>
<g>
	<path class="st0" d="M54.7,112.7c-5.5,0-10-4.5-10-10v-48c0-5.5,4.5-10,10-10h48c5.5,0,10,4.5,10,10s-4.5,10-10,10h-38v38
		C64.7,108.3,60.3,112.7,54.7,112.7z"/>
</g>
<g>
	<path class="st0" d="M201.3,211.3c-2.6,0-5.1-1-7.1-2.9l-53.3-53.3c-3.9-3.9-3.9-10.2,0-14.1c3.9-3.9,10.2-3.9,14.1,0l53.3,53.3
		c3.9,3.9,3.9,10.2,0,14.1C206.4,210.3,203.8,211.3,201.3,211.3z"/>
</g>
<g>
	<path class="st0" d="M201.3,211.3h-48c-5.5,0-10-4.5-10-10s4.5-10,10-10h38v-38c0-5.5,4.5-10,10-10s10,4.5,10,10v48
		C211.3,206.8,206.8,211.3,201.3,211.3z"/>
</g>
</svg>
