<?xml version="1.0" encoding="utf-8"?>
<!-- Generator: Adobe Illustrator 25.4.1, SVG Export Plug-In . SVG Version: 6.00 Build 0)  -->
<svg version="1.1" id="Layer_1" xmlns="http://www.w3.org/2000/svg" xmlns:xlink="http://www.w3.org/1999/xlink" x="0px" y="0px"
	 viewBox="0 0 256 256" style="enable-background:new 0 0 256 256;" xml:space="preserve">
<style type="text/css">
	.st0{fill:#FFFFFF;}
</style>
<g>
	<path class="st0" d="M208,250H48c-23.2,0-42-18.8-42-42V48C6,24.8,24.8,6,48,6h160c23.2,0,42,18.8,42,42v160
		C250,231.2,231.2,250,208,250z M48,26c-12.1,0-22,9.9-22,22v160c0,12.1,9.9,22,22,22h160c12.1,0,22-9.9,22-22V48
		c0-12.1-9.9-22-22-22H48z"/>
</g>
<g>
	<path class="st0" d="M104,114c-2.6,0-5.1-1-7.1-2.9L43.7,57.8c-3.9-3.9-3.9-10.2,0-14.1c3.9-3.9,10.2-3.9,14.1,0l53.3,53.3
		c3.9,3.9,3.9,10.2,0,14.1C109.1,113,106.6,114,104,114z"/>
</g>
<g>
	<path class="st0" d="M104,114H56c-5.5,0-10-4.5-10-10s4.5-10,10-10h38V56c0-5.5,4.5-10,10-10s10,4.5,10,10v48
		C114,109.5,109.5,114,104,114z"/>
</g>
<g>
	<path class="st0" d="M205.3,215.3c-2.6,0-5.1-1-7.1-2.9l-53.3-53.3c-3.9-3.9-3.9-10.2,0-14.1c3.9-3.9,10.2-3.9,14.1,0l53.3,53.3
		c3.9,3.9,3.9,10.2,0,14.1C210.4,214.3,207.8,215.3,205.3,215.3z"/>
</g>
<g>
	<path class="st0" d="M152,210c-5.5,0-10-4.5-10-10v-48c0-5.5,4.5-10,10-10h48c5.5,0,10,4.5,10,10s-4.5,10-10,10h-38v38
		C162,205.5,157.5,210,152,210z"/>
</g>
<g>
	<path class="st0" d="M50.7,215.3c-2.6,0-5.1-1-7.1-2.9c-3.9-3.9-3.9-10.2,0-14.1l53.3-53.3c3.9-3.9,10.2-3.9,14.1,0
		c3.9,3.9,3.9,10.2,0,14.1l-53.3,53.3C55.9,214.3,53.3,215.3,50.7,215.3z"/>
</g>
<g>
	<path class="st0" d="M104,210c-5.5,0-10-4.5-10-10v-38H56c-5.5,0-10-4.5-10-10s4.5-10,10-10h48c5.5,0,10,4.5,10,10v48
		C114,205.5,109.5,210,104,210z"/>
</g>
<g>
	<path class="st0" d="M152,114c-2.6,0-5.1-1-7.1-2.9c-3.9-3.9-3.9-10.2,0-14.1l53.3-53.3c3.9-3.9,10.2-3.9,14.1,0
		c3.9,3.9,3.9,10.2,0,14.1l-53.3,53.3C157.1,113,154.6,114,152,114z"/>
</g>
<g>
	<path class="st0" d="M200,114h-48c-5.5,0-10-4.5-10-10V56c0-5.5,4.5-10,10-10s10,4.5,10,10v38h38c5.5,0,10,4.5,10,10
		S205.5,114,200,114z"/>
</g>
</svg>
